<?xml version="1.0" standalone="no"?>
<!DOCTYPE svg PUBLIC "-//W3C//DTD SVG 20010904//EN"
 "http://www.w3.org/TR/2001/REC-SVG-20010904/DTD/svg10.dtd">
<svg version="1.0" xmlns="http://www.w3.org/2000/svg"
 width="54.000000pt" height="40.000000pt" viewBox="0 0 54.000000 40.000000"
 preserveAspectRatio="xMidYMid meet">

<g transform="translate(0.000000,40.000000) scale(0.100000,-0.100000)"
fill="#000000" stroke="none">
<path d="M76 367 c-25 -32 -26 -40 -26 -167 0 -127 1 -135 26 -167 l25 -33
169 0 169 0 25 33 c25 32 26 40 26 167 0 127 -1 135 -26 167 l-25 33 -169 0
-169 0 -25 -33z m299 -21 c44 -19 59 -66 53 -170 -3 -66 -7 -79 -30 -102 -22
-23 -37 -28 -100 -32 -97 -6 -153 10 -173 48 -18 34 -21 190 -5 220 6 11 23
26 38 34 36 20 171 21 217 2z"/>
<path d="M180 323 c-32 -11 -40 -37 -40 -123 0 -117 9 -125 131 -125 116 0
123 7 127 118 3 72 1 85 -18 110 -20 26 -26 27 -103 26 -45 0 -89 -3 -97 -6z
m190 -38 c0 -8 -6 -15 -14 -15 -17 0 -28 14 -19 24 12 12 33 6 33 -9z m-45
-30 c34 -33 33 -78 -1 -110 -54 -50 -134 -17 -134 55 0 72 84 106 135 55z"/>
<path d="M232 238 c-31 -31 -4 -88 42 -88 20 0 46 28 46 50 0 40 -60 66 -88
38z"/>
</g>
</svg>
